<svg xmlns="http://www.w3.org/2000/svg" xmlns:xlink="http://www.w3.org/1999/xlink" width="56" height="56" viewBox="0 0 56 56">
    <defs>
        <path id="u0xgtr7ula" d="M28.216 9v4.5c0 .828-.653 1.5-1.46 1.5H9.244c-.806 0-1.46-.672-1.46-1.5V9H2.92v39H33.08V9h-4.865zm0-3h6.325C35.347 6 36 6.672 36 7.5v42c0 .828-.653 1.5-1.46 1.5H1.46C.652 51 0 50.328 0 49.5v-42C0 6.672.653 6 1.46 6h6.324V4.5c0-.828.653-1.5 1.46-1.5h3.426c1.142-1.837 3.132-3 5.33-3s4.188 1.163 5.33 3h3.427c.806 0 1.46.672 1.46 1.5V6zm-2.919 0H22.46c-.58 0-1.105-.353-1.337-.9C20.585 3.836 19.367 3 18 3c-1.367 0-2.585.835-3.123 2.1-.232.547-.757.9-1.337.9h-2.837v6h14.594V6zm-15.08 17c-.807 0-1.46-.672-1.46-1.5s.653-1.5 1.46-1.5h15.567c.806 0 1.46.672 1.46 1.5s-.654 1.5-1.46 1.5H10.216zm0 6c-.807 0-1.46-.672-1.46-1.5s.653-1.5 1.46-1.5h15.567c.806 0 1.46.672 1.46 1.5s-.654 1.5-1.46 1.5H10.216zm0 12c-.807 0-1.46-.672-1.46-1.5s.653-1.5 1.46-1.5h15.567c.806 0 1.46.672 1.46 1.5s-.654 1.5-1.46 1.5H10.216zm0-6c-.807 0-1.46-.672-1.46-1.5s.653-1.5 1.46-1.5h12.648c.806 0 1.46.672 1.46 1.5s-.654 1.5-1.46 1.5H10.216z"/>
    </defs>
    <g fill="none" fill-rule="evenodd">
        <g>
            <g transform="translate(10 2)">
                <mask id="1rlbqtcwkb" fill="#fff">
                    <use xlink:href="#u0xgtr7ula"/>
                </mask>
                <use fill="#979797" fill-rule="nonzero" xlink:href="#u0xgtr7ula"/>
                <g fill="#517CAF" mask="url(#1rlbqtcwkb)">
                    <path d="M0 0H56V56H0z" transform="translate(-10 -2)"/>
                </g>
            </g>
        </g>
    </g>
</svg>
