<svg xmlns="http://www.w3.org/2000/svg" xmlns:xlink="http://www.w3.org/1999/xlink" width="56" height="56" viewBox="0 0 56 56">
    <defs>
        <path id="z2d7k8j7ga" d="M25.385 30v7.714h-5.077v5.143h-7.616v-5.143H7.615V30h5.077v-5.143h7.616V30h5.077zm-7.616 2.571V27.43h-2.538v5.142h-5.077v2.572h5.077v5.143h2.538v-5.143h5.077V32.57H17.77zM14.385 21.43c-6.543 0-11.847 5.372-11.847 12v9.857c0 1.183.948 2.143 2.116 2.143h23.692c1.168 0 2.116-.96 2.116-2.143v-9.857c0-6.628-5.304-12-11.847-12h-4.23zm0-2.572h4.23C26.56 18.857 33 25.381 33 33.43v9.857C33 45.889 30.916 48 28.346 48H4.654C2.084 48 0 45.89 0 43.286v-9.857c0-8.048 6.44-14.572 14.385-14.572zm2.115 0c4.44 0 8.038-3.646 8.038-8.143 0-4.497-3.598-8.143-8.038-8.143s-8.038 3.646-8.038 8.143c0 4.497 3.598 8.143 8.038 8.143zm0 2.572c-5.841 0-10.577-4.797-10.577-10.715C5.923 4.797 10.66 0 16.5 0s10.577 4.797 10.577 10.714c0 5.918-4.736 10.715-10.577 10.715z"/>
    </defs>
    <g fill="none" fill-rule="evenodd">
        <g>
            <g transform="translate(12 4)">
                <mask id="kx2snm1i6b" fill="#fff">
                    <use xlink:href="#z2d7k8j7ga"/>
                </mask>
                <use fill="#979797" fill-rule="nonzero" xlink:href="#z2d7k8j7ga"/>
                <g fill="#517CAF" mask="url(#kx2snm1i6b)">
                    <path d="M0 0H48V48H0z" transform="translate(-7)"/>
                </g>
            </g>
        </g>
    </g>
</svg>
