<svg xmlns="http://www.w3.org/2000/svg" xmlns:xlink="http://www.w3.org/1999/xlink" width="56" height="56" viewBox="0 0 56 56">
    <defs>
        <path id="lyze9hiwja" d="M25 5.01L4.593 40.5h40.814L25 5.01zm1.3-3.758l23 40c.575 1-.146 2.248-1.3 2.248H2C.846 43.5.125 42.252.7 41.252l23-40c.576-1.003 2.024-1.003 2.6 0zm12.427 44.832c.828 0 1.5.672 1.5 1.5 0 .829-.672 1.5-1.5 1.5H11.36c-.828 0-1.5-.671-1.5-1.5 0-.828.672-1.5 1.5-1.5h27.367zM3.305 31.847c-.409.72-1.324.974-2.045.565-.72-.408-.973-1.324-.565-2.044L14.36 6.26c.409-.72 1.324-.973 2.045-.565.72.409.973 1.324.565 2.045L3.305 31.847zM33.08 7.874c-.41-.72-.158-1.636.562-2.046.72-.41 1.635-.158 2.045.562l13.394 23.526c.41.72.159 1.635-.561 2.045-.72.41-1.636.159-2.046-.561L33.08 7.874zM14.57 34.5L25 16.048 35.43 34.5H14.57zm11.736-22.238c-.574-1.016-2.038-1.016-2.612 0l-13 23c-.565 1 .157 2.238 1.306 2.238h26c1.149 0 1.871-1.238 1.306-2.238l-13-23z"/>
    </defs>
    <g fill="none" fill-rule="evenodd">
        <g>
            <g transform="translate(3 3)">
                <mask id="bav9jlbl8b" fill="#fff">
                    <use xlink:href="#lyze9hiwja"/>
                </mask>
                <use fill="#979797" fill-rule="nonzero" xlink:href="#lyze9hiwja"/>
                <g fill="#517CAF" mask="url(#bav9jlbl8b)">
                    <path d="M0 0H56V56H0z" transform="translate(-3 -3)"/>
                </g>
            </g>
        </g>
    </g>
</svg>
