<svg xmlns="http://www.w3.org/2000/svg" xmlns:xlink="http://www.w3.org/1999/xlink" width="50" height="52" viewBox="0 0 50 52">
    <defs>
        <path id="7b08nw16da" d="M0 0L50 0 50 52 0 52z"/>
    </defs>
    <g fill="none" fill-rule="evenodd">
        <g>
            <g>
                <g transform="translate(-25 -29) translate(25 29)">
                    <mask id="9m3tw9ry2b" fill="#fff">
                        <use xlink:href="#7b08nw16da"/>
                    </mask>
                    <path fill="#FFF" fill-opacity=".4" d="M17.29 42.602c2.726-5.875 7.97-13.938 10.996-19.664 1.52-2.876 1.164-1.98 2.685-4.857 2.258-4.274 3.67-8.694.58-13.378-3.486-5.285-14.395 2.224-17.856 7.554-1.879 2.896-6.856 11.397-9.896 17.15-2.354 4.454-5.23 8.953-2.16 13.965 3.909 6.377 12.856 5.405 15.65-1.289" mask="url(#9m3tw9ry2b)"/>
                    <path fill="#FAAF41" d="M18.333 39.007c0 4.483-6.482 10.84-8.544 12.749-.352.325-.892.325-1.244 0C6.483 49.846 0 43.49 0 39.007c0-5.33 3.763-9.652 9.167-9.652s9.166 4.321 9.166 9.652" mask="url(#9m3tw9ry2b)"/>
                    <path fill="#FFFFFE" d="M49.177 36.02C46.64 29.981 35.791 9.47 35.791 9.47 32.981 3.994 31.405-.094 25.47.001c-6.714.107-9.824 7.182-12.137 12.357 1.98-.938 4.478-.13 5.392 1.842.068.146.13.277.187.388.744 1.475 13.226 28.29 15.047 30.568.921 1.152 2.025 2.115 3.428 2.73 7.428 3.255 15.19-4.581 11.79-11.868" mask="url(#9m3tw9ry2b)"/>
                </g>
            </g>
        </g>
    </g>
</svg>
