<svg xmlns="http://www.w3.org/2000/svg" xmlns:xlink="http://www.w3.org/1999/xlink" width="210" height="120" viewBox="0 0 210 120">
    <defs>
        <path id="a" d="M0 .5h18.582v19.507H0z"/>
        <path id="c" d="M.467.263h4.866v4.865H.467z"/>
        <path id="e" d="M.085.263H4.95v4.865H.085z"/>
        <path id="g" d="M.215.263H5.08v4.865H.215z"/>
        <path id="i" d="M.402.263h4.865v4.865H.402z"/>
        <path id="k" d="M.02.263h4.865v4.865H.02z"/>
        <path id="m" d="M.15.263h4.865v4.865H.15z"/>
        <path id="o" d="M.453.263H15.05v4.865H.453z"/>
        <path id="q" d="M.058.263h14.597v4.865H.058z"/>
        <path id="s" d="M.176.263h14.596v4.865H.176z"/>
    </defs>
    <g fill="none" fill-rule="evenodd">
        <g transform="translate(2.172 86.658)">
            <mask id="b" fill="#fff">
                <use xlink:href="#a"/>
            </mask>
            <path fill="#25346E" d="M13.231 19.79c-1.116-.467-1.606-.827-2.075-1.763-.36.361-.756.72-1.115.972-.9.648-2.195 1.008-3.708 1.008C2.232 20.007 0 17.919 0 14.249c0-4.32 2.987-6.335 8.853-6.335.36 0 .684 0 1.08.035v-.754c0-2.052-.396-2.735-2.16-2.735-1.548 0-3.346.755-5.326 2.085L.395 3.091c.972-.612 1.693-.972 2.987-1.513C5.182.824 6.73.5 8.422.5c3.095 0 5.219 1.15 5.938 3.203.252.757.36 1.332.324 3.312l-.108 5.154c0 4.961 2.295 7.154 4.006 7.621h-5.35zm-3.586-8.53c-3.347 0-4.499.613-4.499 2.809 0 1.438.9 2.411 2.124 2.411.9 0 1.8-.467 2.52-1.26l.072-3.96h-.217z" mask="url(#b)"/>
        </g>
        <path fill="#25346E" d="M30.973 106.448c-.144-.287-.406-1.042-.478-1.546-1.188 1.043-2.59 1.546-4.247 1.546-4.679 0-7.63-3.634-7.63-9.357 0-5.758 3.203-9.717 7.882-9.717 1.332 0 2.376.324 3.276 1.043-.072-.396-.145-1.655-.145-2.735v-6.335l4.788.757V99.25c0 4.536.549 6.48.873 7.198h-4.32zm-1.269-14.036c-.9-.791-1.764-1.187-2.628-1.187-2.16 0-3.095 1.798-3.095 5.902 0 3.96.827 5.254 3.346 5.254.9 0 1.908-.61 2.377-1.187v-8.782zM46.548 105.98h-3.995l-6.695-18.138 4.93-.612 2.663 8.313c.396 1.224.937 3.24 1.19 4.427.143-1.08.539-2.843 1.114-4.679l2.483-7.738h5.04l-6.73 18.428zM58.352 98.28v.143c0 2.843 1.404 4.463 3.887 4.463 1.655 0 3.203-.613 4.679-1.836l1.87 2.88c-2.122 1.727-4.353 2.555-6.946 2.555-5.29 0-8.709-3.743-8.709-9.538 0-3.31.684-5.506 2.304-7.306 1.51-1.691 3.346-2.483 5.794-2.483 2.123 0 4.139.72 5.328 1.944 1.69 1.726 2.446 4.21 2.446 8.06v1.117H58.352zm5.65-3.744c0-1.368-.144-2.088-.576-2.77-.467-.72-1.151-1.082-2.124-1.082-1.835 0-2.878 1.44-2.878 3.996v.071h5.578v-.215zM81.493 105.98V93.997c0-2.087-.36-2.7-1.619-2.7-.973 0-2.231.648-3.348 1.656v13.029h-4.823V92.629c0-1.584-.216-3.096-.647-4.32l4.284-1.223c.43.756.683 1.547.683 2.304.72-.504 1.332-.938 2.123-1.368.971-.504 2.231-.792 3.31-.792 2.053 0 3.853 1.079 4.428 2.663.252.683.36 1.476.36 2.627v13.46h-4.75zM95.852 106.413c-2.447 0-4.39-1.079-4.967-2.7-.287-.791-.323-1.15-.323-2.842V90.865h-1.837v-3.312h1.837c0-1.8 0-2.986.18-4.355l4.894-1.223a55.025 55.025 0 0 0-.287 5.578h4.318l-1.223 3.312h-3.095v9.25c0 2.338.43 2.95 2.087 2.95.432 0 1.382-.107 2.246-.36a4.926 4.926 0 0 0 1.26 2.956l.156.172c-1.403.576-3.986.58-5.246.58M113.704 106.485a4.219 4.219 0 0 1-1.44-1.8c-1.187 1.152-2.915 1.764-4.857 1.764-2.592 0-4.824-1.223-5.436-2.987-.288-.828-.396-1.8-.396-3.672V87.985l4.75-.899v11.84c0 1.657.145 2.52.397 3.023.251.504.972.865 1.692.865 1.188 0 2.626-.865 2.987-1.764V88.093l4.606-.972v14.073c0 1.223.397 2.483 1.116 3.347l-3.419 1.944z"/>
        <path fill="#FAB043" d="M154.648 106.34c-2.32 0-4.863-.736-7.627-2.173l1.77-3.61c1.509.92 4.126 2.136 6.263 2.136 1.4 0 2.505-.92 2.505-2.137 0-1.29-.92-1.952-2.911-2.321l-2.21-.405c-1.253-.221-2.8-1.106-3.463-1.916-.664-.81-1.07-2.174-1.07-3.39 0-3.684 2.911-6.153 7.296-6.153 3.021 0 5.011.922 6.743 1.768l-1.623 3.316c-1.878-.958-3.241-1.363-4.641-1.363-1.437 0-2.396.737-2.396 1.843 0 .958.627 1.473 2.358 1.915l2.286.59c2.32.589 3.094 1.29 3.757 2.137.7.885 1.031 1.952 1.031 3.206 0 3.904-3.241 6.558-8.068 6.558M173.847 97.498c-3.428 0-4.606.626-4.606 2.874 0 1.474.921 2.468 2.174 2.468.921 0 1.843-.479 2.579-1.289l.074-4.053h-.221zm4.2 9.211c-1.142-.48-2.174-1.326-2.652-2.285-.37.37-.774.737-1.143.995-.921.664-2.248 1.032-3.795 1.032-4.2 0-6.484-2.136-6.484-5.895 0-4.421 3.057-6.484 9.064-6.484.368 0 .699 0 1.104.036v-.773c0-2.1-.405-2.8-2.21-2.8-1.584 0-3.426.774-5.453 2.136l-2.1-3.538c.995-.625 1.73-.994 3.058-1.546 1.842-.774 3.427-1.105 5.158-1.105 3.169 0 5.343 1.179 6.079 3.279.259.774.369 1.363.332 3.39l-.111 6.337c-.036 2.063.111 2.947 1.769 4.199l-2.616 3.022zM203.549 94.034c0-1.4-.148-2.137-.59-2.836-.478-.737-1.179-1.106-2.174-1.106-1.88 0-2.947 1.475-2.947 4.09v.073h5.71v-.22zm-5.784 3.833v.148c0 2.91 1.436 4.568 3.979 4.568 1.694 0 3.279-.627 4.789-1.88l1.916 2.948c-2.174 1.768-4.458 2.616-7.111 2.616-5.416 0-8.917-3.832-8.917-9.764 0-3.39.7-5.637 2.358-7.48 1.548-1.73 3.427-2.542 5.933-2.542 2.174 0 4.236.738 5.453 1.99 1.732 1.769 2.505 4.311 2.505 8.253v1.143h-10.905zM193.321 87.714c.27-.303.553-.573.844-.827h-5.983v-2.69c0-1.364.811-2.137 2.063-2.137.59 0 .958.11 2.026.627l1.585-3.059c-1.51-.847-2.837-1.178-4.457-1.178-3.87 0-6.08 2.137-6.08 5.857 0 .848.073 1.806.184 2.58h-1.806v3.39h1.695v15.474h4.827V90.276h3.439a9.542 9.542 0 0 1 1.663-2.562"/>
        <path fill="#25346E" d="M129.002 91.723c-.466-.252-.722-.318-1.26-.318-1.082 0-2.053.503-2.953 1.547v13.029h-4.823V93.673c0-2.484-.288-4.356-.685-5.4l4.32-1.152c.432.756.684 1.584.757 2.628 1.044-1.404 2.42-2.628 4.318-2.628 1.899 0 2.687.703 2.687.703-1.07.965-1.962 2.192-2.29 3.595l-.071.304zM135.26 98.28v.143c0 2.843 1.404 4.463 3.888 4.463 1.655 0 3.203-.613 4.679-1.836l1.873 2.88c-2.123 1.727-4.357 2.555-6.948 2.555-5.29 0-8.708-3.743-8.708-9.538 0-3.31.682-5.506 2.301-7.306 1.512-1.691 3.348-2.483 5.796-2.483 2.124 0 4.138.72 5.326 1.944 1.692 1.726 2.449 4.21 2.449 8.06v1.117H135.26zm5.652-3.744c0-1.368-.144-2.088-.576-2.77-.468-.72-1.15-1.082-2.123-1.082-1.836 0-2.88 1.44-2.88 3.996v.071h5.58v-.215z"/>
        <g transform="translate(40.631 114.862)">
            <mask id="d" fill="#fff">
                <use xlink:href="#c"/>
            </mask>
            <path fill="#527DAF" d="M5.333 2.695a2.432 2.432 0 1 1-4.865 0 2.432 2.432 0 0 1 4.865 0" mask="url(#d)"/>
        </g>
        <g transform="translate(51.913 114.862)">
            <mask id="f" fill="#fff">
                <use xlink:href="#e"/>
            </mask>
            <path fill="#527DAF" d="M4.95 2.695a2.432 2.432 0 1 1-4.865 0 2.432 2.432 0 0 1 4.865 0" mask="url(#f)"/>
        </g>
        <g transform="translate(62.682 114.862)">
            <mask id="h" fill="#fff">
                <use xlink:href="#g"/>
            </mask>
            <path fill="#527DAF" d="M5.08 2.695a2.433 2.433 0 1 1-4.864 0 2.433 2.433 0 0 1 4.865 0" mask="url(#h)"/>
        </g>
        <g transform="translate(142.678 114.862)">
            <mask id="j" fill="#fff">
                <use xlink:href="#i"/>
            </mask>
            <path fill="#527DAF" d="M5.267 2.695a2.432 2.432 0 1 1-4.865 0 2.432 2.432 0 0 1 4.865 0" mask="url(#j)"/>
        </g>
        <g transform="translate(153.96 114.862)">
            <mask id="l" fill="#fff">
                <use xlink:href="#k"/>
            </mask>
            <path fill="#527DAF" d="M4.885 2.695a2.433 2.433 0 1 1-4.865 0 2.433 2.433 0 0 1 4.865 0" mask="url(#l)"/>
        </g>
        <g transform="translate(164.728 114.862)">
            <mask id="n" fill="#fff">
                <use xlink:href="#m"/>
            </mask>
            <path fill="#527DAF" d="M5.015 2.695a2.433 2.433 0 1 1-4.865 0 2.433 2.433 0 0 1 4.865 0" mask="url(#n)"/>
        </g>
        <g transform="translate(77.04 114.862)">
            <mask id="p" fill="#fff">
                <use xlink:href="#o"/>
            </mask>
            <path fill="#FAB043" d="M12.616 5.128h-9.73a2.432 2.432 0 1 1 0-4.865h9.73a2.433 2.433 0 1 1 0 4.865" mask="url(#p)"/>
        </g>
        <g transform="translate(98.064 114.862)">
            <mask id="r" fill="#fff">
                <use xlink:href="#q"/>
            </mask>
            <path fill="#FAB043" d="M12.222 5.128H2.49a2.432 2.432 0 1 1 0-4.865h9.73a2.433 2.433 0 1 1 0 4.865" mask="url(#r)"/>
        </g>
        <g transform="translate(118.576 114.862)">
            <mask id="t" fill="#fff">
                <use xlink:href="#s"/>
            </mask>
            <path fill="#FAB043" d="M12.34 5.128H2.608a2.432 2.432 0 1 1 0-4.865h9.732a2.433 2.433 0 0 1 0 4.865" mask="url(#t)"/>
        </g>
        <path fill="#25346E" d="M100.138 45.105c1.921-4.119 5.617-9.407 7.75-13.422 1.072-2.016.82-1.388 1.892-3.404 1.592-2.997 2.587-6.096.41-9.38-2.458-3.704-7.752-2.158-10.19 1.579-1.325 2.03-7.228 11.707-9.37 15.74-1.66 3.123-3.962 6.45-1.797 9.963 2.754 4.47 9.335 3.616 11.305-1.076"/>
        <path fill="#FAB043" d="M100.624 43.27c0 3.162-4.51 7.645-5.945 8.992a.63.63 0 0 1-.865 0c-1.435-1.347-5.945-5.83-5.945-8.992 0-3.76 2.618-6.808 6.377-6.808 3.76 0 6.378 3.048 6.378 6.808"/>
        <path fill="#527DAF" d="M122.397 41.569c-1.777-4.274-9.37-18.798-9.37-18.798-1.97-3.876-3.072-6.77-7.226-6.703-4.701.076-6.877 5.085-8.497 8.749 1.386-.664 3.135-.093 3.775 1.304.048.103.091.196.13.275.521 1.044 9.259 20.029 10.534 21.642.645.815 1.418 1.497 2.4 1.932 5.2 2.305 10.633-3.243 8.254-8.401"/>
        <path fill="#527DAF" d="M105.42 3.967c17.6 0 31.92 14.319 31.92 31.919s-14.32 31.92-31.92 31.92-31.918-14.32-31.918-31.92S87.82 3.967 105.42 3.967m0-3.964c-19.817 0-35.882 16.066-35.882 35.883 0 19.817 16.065 35.883 35.882 35.883 19.818 0 35.884-16.066 35.884-35.883 0-19.817-16.066-35.883-35.884-35.883"/>
    </g>
</svg>
