<svg xmlns="http://www.w3.org/2000/svg" xmlns:xlink="http://www.w3.org/1999/xlink" width="56" height="56" viewBox="0 0 56 56">
    <defs>
        <path id="on1zit3lba" d="M38.635 30.145c-.305-.77.073-1.642.843-1.947 1.316-.52 1.874-.155 4.58 2.054.39.318.668.543.896.724-.048-.339-.114-.752-.203-1.288-.61-3.66-.65-4.17.244-5.078 2.263-2.297 3.505-5.131 3.505-8.11 0-7.11-7.108-13-16-13s-16 5.89-16 13c0 .828-.672 1.5-1.5 1.5s-1.5-.672-1.5-1.5c0-8.905 8.562-16 19-16s19 7.095 19 16c0 3.688-1.482 7.174-4.136 9.976-.002.113.004.262.018.442.04.493.11.97.313 2.185.647 3.887.686 4.575-.607 5.413-.95.615-1.79.337-2.897-.384-.525-.342-.947-.671-1.999-1.53-.898-.733-1.31-1.054-1.704-1.312-.2-.13-.352-.213-.436-.244.079.03.222.045.442-.027-.747.245-1.566-.133-1.86-.874zm8.73-3.767l.007-.036-.002.015-.005.021zm-1.188 5.442l.048.02-.014-.005-.034-.015zm-5.596-.832c-.028.011-.057.022-.086.031l.086-.031zM19.5 51.5c-2.694 0-5.311-.472-7.72-1.373-.075.041-.165.096-.268.163-.394.258-.806.579-1.704 1.312-1.052.859-1.474 1.188-1.999 1.53-1.108.721-1.948 1-2.897.384-1.293-.838-1.254-1.526-.607-5.413.202-1.215.273-1.692.313-2.185.014-.18.02-.33.018-.442C1.982 42.674.5 39.188.5 35.5c0-8.905 8.562-16 19-16s19 7.095 19 16c0 8.905-8.562 16-19 16zm14.865-6.122l.005-.021.002-.015-.007.036zm-1.188 5.442l.048.02-.014-.005-.034-.015zM12.5 37c-.828 0-1.5-.672-1.5-1.5s.672-1.5 1.5-1.5 1.5.672 1.5 1.5-.672 1.5-1.5 1.5zm7 0c-.828 0-1.5-.672-1.5-1.5s.672-1.5 1.5-1.5 1.5.672 1.5 1.5-.672 1.5-1.5 1.5zm7 0c-.828 0-1.5-.672-1.5-1.5s.672-1.5 1.5-1.5 1.5.672 1.5 1.5-.672 1.5-1.5 1.5zM7.249 48.688c-.09.536-.155.95-.203 1.288.228-.18.506-.406.896-.724 2.706-2.21 3.264-2.574 4.58-2.054 2.155.852 4.526 1.302 6.978 1.302 8.892 0 16-5.89 16-13s-7.108-13-16-13-16 5.89-16 13c0 2.979 1.242 5.813 3.505 8.11.894.908.853 1.418.26 4.986l-.016.092z"/>
    </defs>
    <g fill="none" fill-rule="evenodd">
        <g>
            <g transform="translate(2 1)">
                <mask id="f348mh8jyb" fill="#fff">
                    <use xlink:href="#on1zit3lba"/>
                </mask>
                <use fill="#A8AFB4" fill-rule="nonzero" xlink:href="#on1zit3lba"/>
                <g fill="#517CAF" mask="url(#f348mh8jyb)">
                    <path d="M0 0H56V56H0z" transform="translate(-2 -1)"/>
                </g>
            </g>
        </g>
    </g>
</svg>
