<svg xmlns="http://www.w3.org/2000/svg" xmlns:xlink="http://www.w3.org/1999/xlink" width="56" height="56" viewBox="0 0 56 56">
    <defs>
        <path id="wvn875qmpa" d="M16.353 51.274c-3.271-1.435-6.237-3.53-8.714-6.18l-.153-.164-.779-.846.015-.023C2.84 39.451.5 33.5.5 27 .5 12.364 12.364.5 27 .5S53.5 12.364 53.5 27c0 6.499-2.34 12.451-6.222 17.061l.015.023-.78.846-.152.165c-2.477 2.65-5.443 4.744-8.714 6.18C34.39 52.704 30.787 53.5 27 53.5s-7.389-.794-10.647-2.226zM8.505 41.5c4.403-5.614 11.162-9 18.495-9s14.092 3.386 18.495 9C48.63 37.506 50.5 32.47 50.5 27 50.5 14.021 39.979 3.5 27 3.5S3.5 14.021 3.5 27c0 5.471 1.87 10.506 5.005 14.5zM27 50.5c6.25 0 12.105-2.452 16.458-6.725C39.628 38.623 33.58 35.5 27 35.5c-6.58 0-12.628 3.123-16.458 8.275C14.895 48.048 20.75 50.5 27 50.5zm0-19c-6.351 0-11.5-5.149-11.5-11.5S20.649 8.5 27 8.5 38.5 13.649 38.5 20 33.351 31.5 27 31.5zm0-3c4.694 0 8.5-3.806 8.5-8.5s-3.806-8.5-8.5-8.5-8.5 3.806-8.5 8.5 3.806 8.5 8.5 8.5z"/>
    </defs>
    <g fill="none" fill-rule="evenodd">
        <g>
            <g transform="translate(1 1)">
                <mask id="p4oqskwwsb" fill="#fff">
                    <use xlink:href="#wvn875qmpa"/>
                </mask>
                <use fill="#979797" fill-rule="nonzero" xlink:href="#wvn875qmpa"/>
                <g fill="#517CAF" mask="url(#p4oqskwwsb)">
                    <path d="M0 0H56V56H0z" transform="translate(-1 -1)"/>
                </g>
            </g>
        </g>
    </g>
</svg>
