<svg xmlns="http://www.w3.org/2000/svg" xmlns:xlink="http://www.w3.org/1999/xlink" width="40" height="40" viewBox="0 0 40 40">
    <defs>
        <path id="rycnueue7a" d="M17.328.647C7.773.647 0 8.43 0 18c0 9.569 7.773 17.353 17.328 17.353 8.177 0 15.04-5.706 16.85-13.355.153-.651-.25-1.304-.901-1.458-.651-.154-1.304.25-1.457.9l-.001.003c-1.557 6.578-7.438 11.489-14.49 11.489C9.083 32.932 2.42 26.262 2.42 18S9.084 3.068 17.328 3.068c6.287 0 11.64 3.884 13.835 9.383l-2.737-1.4c-.583-.327-1.321-.12-1.648.463-.328.583-.12 1.322.463 1.649.028.016.058.03.088.045l5.145 2.623c.58.291 1.286.074 1.602-.492l2.9-5.158c.339-.577.145-1.319-.432-1.657-.223-.13-.483-.187-.74-.16-.4.04-.755.277-.946.631l-1.438 2.573C30.867 5.168 24.618.647 17.328.647"/>
    </defs>
    <g fill="none" fill-rule="evenodd">
        <g>
            <g transform="translate(2 2)">
                <mask id="pj6y6muq1b" fill="#fff">
                    <use xlink:href="#rycnueue7a"/>
                </mask>
                <use fill="#000" xlink:href="#rycnueue7a"/>
                <g fill="#7F8891" mask="url(#pj6y6muq1b)">
                    <path d="M0 0H40V40H0z" transform="translate(-2 -2)"/>
                </g>
            </g>
        </g>
    </g>
</svg>
